<svg xmlns="http://www.w3.org/2000/svg" width="1280" height="720" viewBox="0 0 1280 720" role="img" aria-label="privacy.md - the repo at github.com/snoels/privacy.md, the package at npmjs.com/package/privacy.md">
  <rect x="0" y="0" width="1280" height="720" fill="#0D1117"/>

  <text x="64" y="88" font-family="ui-monospace, SFMono-Regular, Menlo, Consolas, monospace" font-size="42" font-weight="700" fill="#E6EDF3">privacy</text>
  <text x="240.4" y="88" font-family="ui-monospace, SFMono-Regular, Menlo, Consolas, monospace" font-size="42" font-weight="700" fill="#58A6FF">.md</text>
  <text x="64" y="126" font-family="-apple-system, BlinkMacSystemFont, Segoe UI, Helvetica, Arial, sans-serif" font-size="19" fill="#8B949E">A privacy boundary for personal AI agents, enforced before the data leaves your machine.</text>
  <line x1="64" y1="156" x2="1216" y2="156" stroke="#21262D" stroke-width="1"/>

  <rect x="200" y="196" width="400" height="430" rx="10" fill="#FFFFFF"/>
    <rect x="282.43" y="262.43" width="56.76" height="8.11" fill="#0D1117"/>
    <rect x="347.30" y="262.43" width="8.11" height="8.11" fill="#0D1117"/>
    <rect x="363.51" y="262.43" width="72.97" height="8.11" fill="#0D1117"/>
    <rect x="460.81" y="262.43" width="56.76" height="8.11" fill="#0D1117"/>
    <rect x="282.43" y="270.54" width="8.11" height="8.11" fill="#0D1117"/>
    <rect x="331.08" y="270.54" width="8.11" height="8.11" fill="#0D1117"/>
    <rect x="347.30" y="270.54" width="8.11" height="8.11" fill="#0D1117"/>
    <rect x="363.51" y="270.54" width="40.54" height="8.11" fill="#0D1117"/>
    <rect x="436.49" y="270.54" width="8.11" height="8.11" fill="#0D1117"/>
    <rect x="460.81" y="270.54" width="8.11" height="8.11" fill="#0D1117"/>
    <rect x="509.46" y="270.54" width="8.11" height="8.11" fill="#0D1117"/>
    <rect x="282.43" y="278.65" width="8.11" height="8.11" fill="#0D1117"/>
    <rect x="298.65" y="278.65" width="24.32" height="8.11" fill="#0D1117"/>
    <rect x="331.08" y="278.65" width="8.11" height="8.11" fill="#0D1117"/>
    <rect x="347.30" y="278.65" width="8.11" height="8.11" fill="#0D1117"/>
    <rect x="363.51" y="278.65" width="32.43" height="8.11" fill="#0D1117"/>
    <rect x="404.05" y="278.65" width="8.11" height="8.11" fill="#0D1117"/>
    <rect x="444.59" y="278.65" width="8.11" height="8.11" fill="#0D1117"/>
    <rect x="460.81" y="278.65" width="8.11" height="8.11" fill="#0D1117"/>
    <rect x="477.03" y="278.65" width="24.32" height="8.11" fill="#0D1117"/>
    <rect x="509.46" y="278.65" width="8.11" height="8.11" fill="#0D1117"/>
    <rect x="282.43" y="286.76" width="8.11" height="8.11" fill="#0D1117"/>
    <rect x="298.65" y="286.76" width="24.32" height="8.11" fill="#0D1117"/>
    <rect x="331.08" y="286.76" width="8.11" height="8.11" fill="#0D1117"/>
    <rect x="363.51" y="286.76" width="8.11" height="8.11" fill="#0D1117"/>
    <rect x="379.73" y="286.76" width="8.11" height="8.11" fill="#0D1117"/>
    <rect x="395.95" y="286.76" width="8.11" height="8.11" fill="#0D1117"/>
    <rect x="412.16" y="286.76" width="16.22" height="8.11" fill="#0D1117"/>
    <rect x="436.49" y="286.76" width="16.22" height="8.11" fill="#0D1117"/>
    <rect x="460.81" y="286.76" width="8.11" height="8.11" fill="#0D1117"/>
    <rect x="477.03" y="286.76" width="24.32" height="8.11" fill="#0D1117"/>
    <rect x="509.46" y="286.76" width="8.11" height="8.11" fill="#0D1117"/>
    <rect x="282.43" y="294.86" width="8.11" height="8.11" fill="#0D1117"/>
    <rect x="298.65" y="294.86" width="24.32" height="8.11" fill="#0D1117"/>
    <rect x="331.08" y="294.86" width="8.11" height="8.11" fill="#0D1117"/>
    <rect x="347.30" y="294.86" width="8.11" height="8.11" fill="#0D1117"/>
    <rect x="371.62" y="294.86" width="8.11" height="8.11" fill="#0D1117"/>
    <rect x="387.84" y="294.86" width="16.22" height="8.11" fill="#0D1117"/>
    <rect x="412.16" y="294.86" width="8.11" height="8.11" fill="#0D1117"/>
    <rect x="428.38" y="294.86" width="16.22" height="8.11" fill="#0D1117"/>
    <rect x="460.81" y="294.86" width="8.11" height="8.11" fill="#0D1117"/>
    <rect x="477.03" y="294.86" width="24.32" height="8.11" fill="#0D1117"/>
    <rect x="509.46" y="294.86" width="8.11" height="8.11" fill="#0D1117"/>
    <rect x="282.43" y="302.97" width="8.11" height="8.11" fill="#0D1117"/>
    <rect x="331.08" y="302.97" width="8.11" height="8.11" fill="#0D1117"/>
    <rect x="363.51" y="302.97" width="40.54" height="8.11" fill="#0D1117"/>
    <rect x="420.27" y="302.97" width="8.11" height="8.11" fill="#0D1117"/>
    <rect x="460.81" y="302.97" width="8.11" height="8.11" fill="#0D1117"/>
    <rect x="509.46" y="302.97" width="8.11" height="8.11" fill="#0D1117"/>
    <rect x="282.43" y="311.08" width="56.76" height="8.11" fill="#0D1117"/>
    <rect x="347.30" y="311.08" width="8.11" height="8.11" fill="#0D1117"/>
    <rect x="363.51" y="311.08" width="8.11" height="8.11" fill="#0D1117"/>
    <rect x="379.73" y="311.08" width="8.11" height="8.11" fill="#0D1117"/>
    <rect x="395.95" y="311.08" width="8.11" height="8.11" fill="#0D1117"/>
    <rect x="412.16" y="311.08" width="8.11" height="8.11" fill="#0D1117"/>
    <rect x="428.38" y="311.08" width="8.11" height="8.11" fill="#0D1117"/>
    <rect x="444.59" y="311.08" width="8.11" height="8.11" fill="#0D1117"/>
    <rect x="460.81" y="311.08" width="56.76" height="8.11" fill="#0D1117"/>
    <rect x="355.41" y="319.19" width="32.43" height="8.11" fill="#0D1117"/>
    <rect x="395.95" y="319.19" width="8.11" height="8.11" fill="#0D1117"/>
    <rect x="412.16" y="319.19" width="8.11" height="8.11" fill="#0D1117"/>
    <rect x="428.38" y="319.19" width="8.11" height="8.11" fill="#0D1117"/>
    <rect x="282.43" y="327.30" width="8.11" height="8.11" fill="#0D1117"/>
    <rect x="306.76" y="327.30" width="48.65" height="8.11" fill="#0D1117"/>
    <rect x="379.73" y="327.30" width="24.32" height="8.11" fill="#0D1117"/>
    <rect x="412.16" y="327.30" width="16.22" height="8.11" fill="#0D1117"/>
    <rect x="452.70" y="327.30" width="8.11" height="8.11" fill="#0D1117"/>
    <rect x="477.03" y="327.30" width="8.11" height="8.11" fill="#0D1117"/>
    <rect x="493.24" y="327.30" width="24.32" height="8.11" fill="#0D1117"/>
    <rect x="290.54" y="335.41" width="16.22" height="8.11" fill="#0D1117"/>
    <rect x="314.86" y="335.41" width="8.11" height="8.11" fill="#0D1117"/>
    <rect x="339.19" y="335.41" width="8.11" height="8.11" fill="#0D1117"/>
    <rect x="355.41" y="335.41" width="8.11" height="8.11" fill="#0D1117"/>
    <rect x="395.95" y="335.41" width="16.22" height="8.11" fill="#0D1117"/>
    <rect x="436.49" y="335.41" width="8.11" height="8.11" fill="#0D1117"/>
    <rect x="452.70" y="335.41" width="8.11" height="8.11" fill="#0D1117"/>
    <rect x="468.92" y="335.41" width="16.22" height="8.11" fill="#0D1117"/>
    <rect x="493.24" y="335.41" width="16.22" height="8.11" fill="#0D1117"/>
    <rect x="306.76" y="343.51" width="8.11" height="8.11" fill="#0D1117"/>
    <rect x="331.08" y="343.51" width="8.11" height="8.11" fill="#0D1117"/>
    <rect x="355.41" y="343.51" width="16.22" height="8.11" fill="#0D1117"/>
    <rect x="395.95" y="343.51" width="16.22" height="8.11" fill="#0D1117"/>
    <rect x="428.38" y="343.51" width="8.11" height="8.11" fill="#0D1117"/>
    <rect x="468.92" y="343.51" width="16.22" height="8.11" fill="#0D1117"/>
    <rect x="493.24" y="343.51" width="8.11" height="8.11" fill="#0D1117"/>
    <rect x="298.65" y="351.62" width="24.32" height="8.11" fill="#0D1117"/>
    <rect x="339.19" y="351.62" width="24.32" height="8.11" fill="#0D1117"/>
    <rect x="379.73" y="351.62" width="8.11" height="8.11" fill="#0D1117"/>
    <rect x="395.95" y="351.62" width="16.22" height="8.11" fill="#0D1117"/>
    <rect x="420.27" y="351.62" width="8.11" height="8.11" fill="#0D1117"/>
    <rect x="436.49" y="351.62" width="8.11" height="8.11" fill="#0D1117"/>
    <rect x="452.70" y="351.62" width="24.32" height="8.11" fill="#0D1117"/>
    <rect x="485.14" y="351.62" width="8.11" height="8.11" fill="#0D1117"/>
    <rect x="509.46" y="351.62" width="8.11" height="8.11" fill="#0D1117"/>
    <rect x="282.43" y="359.73" width="16.22" height="8.11" fill="#0D1117"/>
    <rect x="306.76" y="359.73" width="40.54" height="8.11" fill="#0D1117"/>
    <rect x="355.41" y="359.73" width="8.11" height="8.11" fill="#0D1117"/>
    <rect x="387.84" y="359.73" width="16.22" height="8.11" fill="#0D1117"/>
    <rect x="412.16" y="359.73" width="8.11" height="8.11" fill="#0D1117"/>
    <rect x="428.38" y="359.73" width="16.22" height="8.11" fill="#0D1117"/>
    <rect x="460.81" y="359.73" width="16.22" height="8.11" fill="#0D1117"/>
    <rect x="509.46" y="359.73" width="8.11" height="8.11" fill="#0D1117"/>
    <rect x="290.54" y="367.84" width="8.11" height="8.11" fill="#0D1117"/>
    <rect x="314.86" y="367.84" width="16.22" height="8.11" fill="#0D1117"/>
    <rect x="347.30" y="367.84" width="40.54" height="8.11" fill="#0D1117"/>
    <rect x="404.05" y="367.84" width="8.11" height="8.11" fill="#0D1117"/>
    <rect x="420.27" y="367.84" width="16.22" height="8.11" fill="#0D1117"/>
    <rect x="460.81" y="367.84" width="56.76" height="8.11" fill="#0D1117"/>
    <rect x="298.65" y="375.95" width="8.11" height="8.11" fill="#0D1117"/>
    <rect x="322.97" y="375.95" width="16.22" height="8.11" fill="#0D1117"/>
    <rect x="379.73" y="375.95" width="8.11" height="8.11" fill="#0D1117"/>
    <rect x="395.95" y="375.95" width="16.22" height="8.11" fill="#0D1117"/>
    <rect x="420.27" y="375.95" width="8.11" height="8.11" fill="#0D1117"/>
    <rect x="436.49" y="375.95" width="32.43" height="8.11" fill="#0D1117"/>
    <rect x="477.03" y="375.95" width="8.11" height="8.11" fill="#0D1117"/>
    <rect x="493.24" y="375.95" width="8.11" height="8.11" fill="#0D1117"/>
    <rect x="509.46" y="375.95" width="8.11" height="8.11" fill="#0D1117"/>
    <rect x="298.65" y="384.05" width="16.22" height="8.11" fill="#0D1117"/>
    <rect x="322.97" y="384.05" width="8.11" height="8.11" fill="#0D1117"/>
    <rect x="339.19" y="384.05" width="16.22" height="8.11" fill="#0D1117"/>
    <rect x="371.62" y="384.05" width="8.11" height="8.11" fill="#0D1117"/>
    <rect x="387.84" y="384.05" width="16.22" height="8.11" fill="#0D1117"/>
    <rect x="412.16" y="384.05" width="8.11" height="8.11" fill="#0D1117"/>
    <rect x="436.49" y="384.05" width="8.11" height="8.11" fill="#0D1117"/>
    <rect x="468.92" y="384.05" width="16.22" height="8.11" fill="#0D1117"/>
    <rect x="493.24" y="384.05" width="8.11" height="8.11" fill="#0D1117"/>
    <rect x="509.46" y="384.05" width="8.11" height="8.11" fill="#0D1117"/>
    <rect x="290.54" y="392.16" width="8.11" height="8.11" fill="#0D1117"/>
    <rect x="314.86" y="392.16" width="24.32" height="8.11" fill="#0D1117"/>
    <rect x="355.41" y="392.16" width="8.11" height="8.11" fill="#0D1117"/>
    <rect x="379.73" y="392.16" width="8.11" height="8.11" fill="#0D1117"/>
    <rect x="412.16" y="392.16" width="8.11" height="8.11" fill="#0D1117"/>
    <rect x="436.49" y="392.16" width="24.32" height="8.11" fill="#0D1117"/>
    <rect x="485.14" y="392.16" width="8.11" height="8.11" fill="#0D1117"/>
    <rect x="282.43" y="400.27" width="24.32" height="8.11" fill="#0D1117"/>
    <rect x="314.86" y="400.27" width="8.11" height="8.11" fill="#0D1117"/>
    <rect x="339.19" y="400.27" width="8.11" height="8.11" fill="#0D1117"/>
    <rect x="371.62" y="400.27" width="16.22" height="8.11" fill="#0D1117"/>
    <rect x="404.05" y="400.27" width="8.11" height="8.11" fill="#0D1117"/>
    <rect x="420.27" y="400.27" width="8.11" height="8.11" fill="#0D1117"/>
    <rect x="436.49" y="400.27" width="8.11" height="8.11" fill="#0D1117"/>
    <rect x="477.03" y="400.27" width="8.11" height="8.11" fill="#0D1117"/>
    <rect x="493.24" y="400.27" width="16.22" height="8.11" fill="#0D1117"/>
    <rect x="282.43" y="408.38" width="32.43" height="8.11" fill="#0D1117"/>
    <rect x="322.97" y="408.38" width="40.54" height="8.11" fill="#0D1117"/>
    <rect x="379.73" y="408.38" width="32.43" height="8.11" fill="#0D1117"/>
    <rect x="420.27" y="408.38" width="24.32" height="8.11" fill="#0D1117"/>
    <rect x="477.03" y="408.38" width="16.22" height="8.11" fill="#0D1117"/>
    <rect x="509.46" y="408.38" width="8.11" height="8.11" fill="#0D1117"/>
    <rect x="282.43" y="416.49" width="16.22" height="8.11" fill="#0D1117"/>
    <rect x="306.76" y="416.49" width="8.11" height="8.11" fill="#0D1117"/>
    <rect x="355.41" y="416.49" width="8.11" height="8.11" fill="#0D1117"/>
    <rect x="387.84" y="416.49" width="8.11" height="8.11" fill="#0D1117"/>
    <rect x="404.05" y="416.49" width="8.11" height="8.11" fill="#0D1117"/>
    <rect x="428.38" y="416.49" width="16.22" height="8.11" fill="#0D1117"/>
    <rect x="460.81" y="416.49" width="8.11" height="8.11" fill="#0D1117"/>
    <rect x="485.14" y="416.49" width="16.22" height="8.11" fill="#0D1117"/>
    <rect x="282.43" y="424.59" width="16.22" height="8.11" fill="#0D1117"/>
    <rect x="314.86" y="424.59" width="40.54" height="8.11" fill="#0D1117"/>
    <rect x="371.62" y="424.59" width="8.11" height="8.11" fill="#0D1117"/>
    <rect x="387.84" y="424.59" width="8.11" height="8.11" fill="#0D1117"/>
    <rect x="404.05" y="424.59" width="24.32" height="8.11" fill="#0D1117"/>
    <rect x="444.59" y="424.59" width="64.86" height="8.11" fill="#0D1117"/>
    <rect x="347.30" y="432.70" width="16.22" height="8.11" fill="#0D1117"/>
    <rect x="379.73" y="432.70" width="16.22" height="8.11" fill="#0D1117"/>
    <rect x="404.05" y="432.70" width="8.11" height="8.11" fill="#0D1117"/>
    <rect x="444.59" y="432.70" width="8.11" height="8.11" fill="#0D1117"/>
    <rect x="477.03" y="432.70" width="16.22" height="8.11" fill="#0D1117"/>
    <rect x="282.43" y="440.81" width="56.76" height="8.11" fill="#0D1117"/>
    <rect x="347.30" y="440.81" width="48.65" height="8.11" fill="#0D1117"/>
    <rect x="404.05" y="440.81" width="16.22" height="8.11" fill="#0D1117"/>
    <rect x="428.38" y="440.81" width="24.32" height="8.11" fill="#0D1117"/>
    <rect x="460.81" y="440.81" width="8.11" height="8.11" fill="#0D1117"/>
    <rect x="477.03" y="440.81" width="16.22" height="8.11" fill="#0D1117"/>
    <rect x="282.43" y="448.92" width="8.11" height="8.11" fill="#0D1117"/>
    <rect x="331.08" y="448.92" width="8.11" height="8.11" fill="#0D1117"/>
    <rect x="347.30" y="448.92" width="8.11" height="8.11" fill="#0D1117"/>
    <rect x="379.73" y="448.92" width="16.22" height="8.11" fill="#0D1117"/>
    <rect x="412.16" y="448.92" width="40.54" height="8.11" fill="#0D1117"/>
    <rect x="477.03" y="448.92" width="8.11" height="8.11" fill="#0D1117"/>
    <rect x="509.46" y="448.92" width="8.11" height="8.11" fill="#0D1117"/>
    <rect x="282.43" y="457.03" width="8.11" height="8.11" fill="#0D1117"/>
    <rect x="298.65" y="457.03" width="24.32" height="8.11" fill="#0D1117"/>
    <rect x="331.08" y="457.03" width="8.11" height="8.11" fill="#0D1117"/>
    <rect x="347.30" y="457.03" width="8.11" height="8.11" fill="#0D1117"/>
    <rect x="363.51" y="457.03" width="16.22" height="8.11" fill="#0D1117"/>
    <rect x="387.84" y="457.03" width="8.11" height="8.11" fill="#0D1117"/>
    <rect x="404.05" y="457.03" width="16.22" height="8.11" fill="#0D1117"/>
    <rect x="436.49" y="457.03" width="56.76" height="8.11" fill="#0D1117"/>
    <rect x="509.46" y="457.03" width="8.11" height="8.11" fill="#0D1117"/>
    <rect x="282.43" y="465.14" width="8.11" height="8.11" fill="#0D1117"/>
    <rect x="298.65" y="465.14" width="24.32" height="8.11" fill="#0D1117"/>
    <rect x="331.08" y="465.14" width="8.11" height="8.11" fill="#0D1117"/>
    <rect x="347.30" y="465.14" width="8.11" height="8.11" fill="#0D1117"/>
    <rect x="363.51" y="465.14" width="8.11" height="8.11" fill="#0D1117"/>
    <rect x="379.73" y="465.14" width="8.11" height="8.11" fill="#0D1117"/>
    <rect x="395.95" y="465.14" width="40.54" height="8.11" fill="#0D1117"/>
    <rect x="452.70" y="465.14" width="8.11" height="8.11" fill="#0D1117"/>
    <rect x="509.46" y="465.14" width="8.11" height="8.11" fill="#0D1117"/>
    <rect x="282.43" y="473.24" width="8.11" height="8.11" fill="#0D1117"/>
    <rect x="298.65" y="473.24" width="24.32" height="8.11" fill="#0D1117"/>
    <rect x="331.08" y="473.24" width="8.11" height="8.11" fill="#0D1117"/>
    <rect x="355.41" y="473.24" width="24.32" height="8.11" fill="#0D1117"/>
    <rect x="387.84" y="473.24" width="8.11" height="8.11" fill="#0D1117"/>
    <rect x="404.05" y="473.24" width="16.22" height="8.11" fill="#0D1117"/>
    <rect x="428.38" y="473.24" width="8.11" height="8.11" fill="#0D1117"/>
    <rect x="444.59" y="473.24" width="16.22" height="8.11" fill="#0D1117"/>
    <rect x="468.92" y="473.24" width="16.22" height="8.11" fill="#0D1117"/>
    <rect x="493.24" y="473.24" width="24.32" height="8.11" fill="#0D1117"/>
    <rect x="282.43" y="481.35" width="8.11" height="8.11" fill="#0D1117"/>
    <rect x="331.08" y="481.35" width="8.11" height="8.11" fill="#0D1117"/>
    <rect x="355.41" y="481.35" width="8.11" height="8.11" fill="#0D1117"/>
    <rect x="371.62" y="481.35" width="16.22" height="8.11" fill="#0D1117"/>
    <rect x="404.05" y="481.35" width="8.11" height="8.11" fill="#0D1117"/>
    <rect x="460.81" y="481.35" width="16.22" height="8.11" fill="#0D1117"/>
    <rect x="485.14" y="481.35" width="16.22" height="8.11" fill="#0D1117"/>
    <rect x="509.46" y="481.35" width="8.11" height="8.11" fill="#0D1117"/>
    <rect x="282.43" y="489.46" width="56.76" height="8.11" fill="#0D1117"/>
    <rect x="347.30" y="489.46" width="16.22" height="8.11" fill="#0D1117"/>
    <rect x="379.73" y="489.46" width="8.11" height="8.11" fill="#0D1117"/>
    <rect x="395.95" y="489.46" width="24.32" height="8.11" fill="#0D1117"/>
    <rect x="436.49" y="489.46" width="16.22" height="8.11" fill="#0D1117"/>
    <rect x="460.81" y="489.46" width="8.11" height="8.11" fill="#0D1117"/>
    <rect x="477.03" y="489.46" width="8.11" height="8.11" fill="#0D1117"/>
  <text x="400.0" y="570" text-anchor="middle" font-family="-apple-system, BlinkMacSystemFont, Segoe UI, Helvetica, Arial, sans-serif" font-size="23" font-weight="600" fill="#0D1117">The repo</text>
  <text x="400.0" y="599" text-anchor="middle" font-family="ui-monospace, SFMono-Regular, Menlo, Consolas, monospace" font-size="14" fill="#57606A">github.com/snoels/privacy.md</text>

  <rect x="680" y="196" width="400" height="430" rx="10" fill="#FFFFFF"/>
    <rect x="762.43" y="262.43" width="56.76" height="8.11" fill="#0D1117"/>
    <rect x="843.51" y="262.43" width="8.11" height="8.11" fill="#0D1117"/>
    <rect x="859.73" y="262.43" width="16.22" height="8.11" fill="#0D1117"/>
    <rect x="884.05" y="262.43" width="8.11" height="8.11" fill="#0D1117"/>
    <rect x="916.49" y="262.43" width="8.11" height="8.11" fill="#0D1117"/>
    <rect x="940.81" y="262.43" width="56.76" height="8.11" fill="#0D1117"/>
    <rect x="762.43" y="270.54" width="8.11" height="8.11" fill="#0D1117"/>
    <rect x="811.08" y="270.54" width="8.11" height="8.11" fill="#0D1117"/>
    <rect x="827.30" y="270.54" width="16.22" height="8.11" fill="#0D1117"/>
    <rect x="859.73" y="270.54" width="16.22" height="8.11" fill="#0D1117"/>
    <rect x="884.05" y="270.54" width="24.32" height="8.11" fill="#0D1117"/>
    <rect x="916.49" y="270.54" width="16.22" height="8.11" fill="#0D1117"/>
    <rect x="940.81" y="270.54" width="8.11" height="8.11" fill="#0D1117"/>
    <rect x="989.46" y="270.54" width="8.11" height="8.11" fill="#0D1117"/>
    <rect x="762.43" y="278.65" width="8.11" height="8.11" fill="#0D1117"/>
    <rect x="778.65" y="278.65" width="24.32" height="8.11" fill="#0D1117"/>
    <rect x="811.08" y="278.65" width="8.11" height="8.11" fill="#0D1117"/>
    <rect x="835.41" y="278.65" width="8.11" height="8.11" fill="#0D1117"/>
    <rect x="851.62" y="278.65" width="16.22" height="8.11" fill="#0D1117"/>
    <rect x="884.05" y="278.65" width="16.22" height="8.11" fill="#0D1117"/>
    <rect x="908.38" y="278.65" width="16.22" height="8.11" fill="#0D1117"/>
    <rect x="940.81" y="278.65" width="8.11" height="8.11" fill="#0D1117"/>
    <rect x="957.03" y="278.65" width="24.32" height="8.11" fill="#0D1117"/>
    <rect x="989.46" y="278.65" width="8.11" height="8.11" fill="#0D1117"/>
    <rect x="762.43" y="286.76" width="8.11" height="8.11" fill="#0D1117"/>
    <rect x="778.65" y="286.76" width="24.32" height="8.11" fill="#0D1117"/>
    <rect x="811.08" y="286.76" width="8.11" height="8.11" fill="#0D1117"/>
    <rect x="859.73" y="286.76" width="8.11" height="8.11" fill="#0D1117"/>
    <rect x="884.05" y="286.76" width="8.11" height="8.11" fill="#0D1117"/>
    <rect x="908.38" y="286.76" width="8.11" height="8.11" fill="#0D1117"/>
    <rect x="940.81" y="286.76" width="8.11" height="8.11" fill="#0D1117"/>
    <rect x="957.03" y="286.76" width="24.32" height="8.11" fill="#0D1117"/>
    <rect x="989.46" y="286.76" width="8.11" height="8.11" fill="#0D1117"/>
    <rect x="762.43" y="294.86" width="8.11" height="8.11" fill="#0D1117"/>
    <rect x="778.65" y="294.86" width="24.32" height="8.11" fill="#0D1117"/>
    <rect x="811.08" y="294.86" width="8.11" height="8.11" fill="#0D1117"/>
    <rect x="827.30" y="294.86" width="8.11" height="8.11" fill="#0D1117"/>
    <rect x="851.62" y="294.86" width="40.54" height="8.11" fill="#0D1117"/>
    <rect x="908.38" y="294.86" width="24.32" height="8.11" fill="#0D1117"/>
    <rect x="940.81" y="294.86" width="8.11" height="8.11" fill="#0D1117"/>
    <rect x="957.03" y="294.86" width="24.32" height="8.11" fill="#0D1117"/>
    <rect x="989.46" y="294.86" width="8.11" height="8.11" fill="#0D1117"/>
    <rect x="762.43" y="302.97" width="8.11" height="8.11" fill="#0D1117"/>
    <rect x="811.08" y="302.97" width="8.11" height="8.11" fill="#0D1117"/>
    <rect x="835.41" y="302.97" width="32.43" height="8.11" fill="#0D1117"/>
    <rect x="875.95" y="302.97" width="32.43" height="8.11" fill="#0D1117"/>
    <rect x="916.49" y="302.97" width="16.22" height="8.11" fill="#0D1117"/>
    <rect x="940.81" y="302.97" width="8.11" height="8.11" fill="#0D1117"/>
    <rect x="989.46" y="302.97" width="8.11" height="8.11" fill="#0D1117"/>
    <rect x="762.43" y="311.08" width="56.76" height="8.11" fill="#0D1117"/>
    <rect x="827.30" y="311.08" width="8.11" height="8.11" fill="#0D1117"/>
    <rect x="843.51" y="311.08" width="8.11" height="8.11" fill="#0D1117"/>
    <rect x="859.73" y="311.08" width="8.11" height="8.11" fill="#0D1117"/>
    <rect x="875.95" y="311.08" width="8.11" height="8.11" fill="#0D1117"/>
    <rect x="892.16" y="311.08" width="8.11" height="8.11" fill="#0D1117"/>
    <rect x="908.38" y="311.08" width="8.11" height="8.11" fill="#0D1117"/>
    <rect x="924.59" y="311.08" width="8.11" height="8.11" fill="#0D1117"/>
    <rect x="940.81" y="311.08" width="56.76" height="8.11" fill="#0D1117"/>
    <rect x="867.84" y="319.19" width="8.11" height="8.11" fill="#0D1117"/>
    <rect x="884.05" y="319.19" width="8.11" height="8.11" fill="#0D1117"/>
    <rect x="900.27" y="319.19" width="32.43" height="8.11" fill="#0D1117"/>
    <rect x="762.43" y="327.30" width="8.11" height="8.11" fill="#0D1117"/>
    <rect x="778.65" y="327.30" width="8.11" height="8.11" fill="#0D1117"/>
    <rect x="794.86" y="327.30" width="8.11" height="8.11" fill="#0D1117"/>
    <rect x="811.08" y="327.30" width="8.11" height="8.11" fill="#0D1117"/>
    <rect x="843.51" y="327.30" width="8.11" height="8.11" fill="#0D1117"/>
    <rect x="859.73" y="327.30" width="16.22" height="8.11" fill="#0D1117"/>
    <rect x="892.16" y="327.30" width="16.22" height="8.11" fill="#0D1117"/>
    <rect x="916.49" y="327.30" width="16.22" height="8.11" fill="#0D1117"/>
    <rect x="957.03" y="327.30" width="8.11" height="8.11" fill="#0D1117"/>
    <rect x="981.35" y="327.30" width="8.11" height="8.11" fill="#0D1117"/>
    <rect x="762.43" y="335.41" width="16.22" height="8.11" fill="#0D1117"/>
    <rect x="786.76" y="335.41" width="8.11" height="8.11" fill="#0D1117"/>
    <rect x="819.19" y="335.41" width="24.32" height="8.11" fill="#0D1117"/>
    <rect x="859.73" y="335.41" width="8.11" height="8.11" fill="#0D1117"/>
    <rect x="892.16" y="335.41" width="16.22" height="8.11" fill="#0D1117"/>
    <rect x="924.59" y="335.41" width="24.32" height="8.11" fill="#0D1117"/>
    <rect x="965.14" y="335.41" width="8.11" height="8.11" fill="#0D1117"/>
    <rect x="989.46" y="335.41" width="8.11" height="8.11" fill="#0D1117"/>
    <rect x="770.54" y="343.51" width="8.11" height="8.11" fill="#0D1117"/>
    <rect x="794.86" y="343.51" width="8.11" height="8.11" fill="#0D1117"/>
    <rect x="811.08" y="343.51" width="8.11" height="8.11" fill="#0D1117"/>
    <rect x="843.51" y="343.51" width="24.32" height="8.11" fill="#0D1117"/>
    <rect x="892.16" y="343.51" width="24.32" height="8.11" fill="#0D1117"/>
    <rect x="932.70" y="343.51" width="8.11" height="8.11" fill="#0D1117"/>
    <rect x="973.24" y="343.51" width="24.32" height="8.11" fill="#0D1117"/>
    <rect x="770.54" y="351.62" width="8.11" height="8.11" fill="#0D1117"/>
    <rect x="802.97" y="351.62" width="8.11" height="8.11" fill="#0D1117"/>
    <rect x="827.30" y="351.62" width="16.22" height="8.11" fill="#0D1117"/>
    <rect x="867.84" y="351.62" width="16.22" height="8.11" fill="#0D1117"/>
    <rect x="892.16" y="351.62" width="24.32" height="8.11" fill="#0D1117"/>
    <rect x="924.59" y="351.62" width="24.32" height="8.11" fill="#0D1117"/>
    <rect x="957.03" y="351.62" width="8.11" height="8.11" fill="#0D1117"/>
    <rect x="981.35" y="351.62" width="8.11" height="8.11" fill="#0D1117"/>
    <rect x="770.54" y="359.73" width="8.11" height="8.11" fill="#0D1117"/>
    <rect x="802.97" y="359.73" width="32.43" height="8.11" fill="#0D1117"/>
    <rect x="843.51" y="359.73" width="8.11" height="8.11" fill="#0D1117"/>
    <rect x="859.73" y="359.73" width="16.22" height="8.11" fill="#0D1117"/>
    <rect x="900.27" y="359.73" width="8.11" height="8.11" fill="#0D1117"/>
    <rect x="916.49" y="359.73" width="32.43" height="8.11" fill="#0D1117"/>
    <rect x="965.14" y="359.73" width="8.11" height="8.11" fill="#0D1117"/>
    <rect x="981.35" y="359.73" width="16.22" height="8.11" fill="#0D1117"/>
    <rect x="762.43" y="367.84" width="16.22" height="8.11" fill="#0D1117"/>
    <rect x="786.76" y="367.84" width="8.11" height="8.11" fill="#0D1117"/>
    <rect x="819.19" y="367.84" width="16.22" height="8.11" fill="#0D1117"/>
    <rect x="851.62" y="367.84" width="8.11" height="8.11" fill="#0D1117"/>
    <rect x="867.84" y="367.84" width="8.11" height="8.11" fill="#0D1117"/>
    <rect x="892.16" y="367.84" width="8.11" height="8.11" fill="#0D1117"/>
    <rect x="924.59" y="367.84" width="8.11" height="8.11" fill="#0D1117"/>
    <rect x="940.81" y="367.84" width="16.22" height="8.11" fill="#0D1117"/>
    <rect x="965.14" y="367.84" width="8.11" height="8.11" fill="#0D1117"/>
    <rect x="989.46" y="367.84" width="8.11" height="8.11" fill="#0D1117"/>
    <rect x="762.43" y="375.95" width="16.22" height="8.11" fill="#0D1117"/>
    <rect x="786.76" y="375.95" width="8.11" height="8.11" fill="#0D1117"/>
    <rect x="811.08" y="375.95" width="24.32" height="8.11" fill="#0D1117"/>
    <rect x="859.73" y="375.95" width="8.11" height="8.11" fill="#0D1117"/>
    <rect x="900.27" y="375.95" width="16.22" height="8.11" fill="#0D1117"/>
    <rect x="940.81" y="375.95" width="16.22" height="8.11" fill="#0D1117"/>
    <rect x="965.14" y="375.95" width="8.11" height="8.11" fill="#0D1117"/>
    <rect x="981.35" y="375.95" width="16.22" height="8.11" fill="#0D1117"/>
    <rect x="762.43" y="384.05" width="24.32" height="8.11" fill="#0D1117"/>
    <rect x="827.30" y="384.05" width="8.11" height="8.11" fill="#0D1117"/>
    <rect x="851.62" y="384.05" width="8.11" height="8.11" fill="#0D1117"/>
    <rect x="867.84" y="384.05" width="8.11" height="8.11" fill="#0D1117"/>
    <rect x="884.05" y="384.05" width="8.11" height="8.11" fill="#0D1117"/>
    <rect x="900.27" y="384.05" width="16.22" height="8.11" fill="#0D1117"/>
    <rect x="932.70" y="384.05" width="8.11" height="8.11" fill="#0D1117"/>
    <rect x="965.14" y="384.05" width="8.11" height="8.11" fill="#0D1117"/>
    <rect x="981.35" y="384.05" width="8.11" height="8.11" fill="#0D1117"/>
    <rect x="770.54" y="392.16" width="8.11" height="8.11" fill="#0D1117"/>
    <rect x="794.86" y="392.16" width="8.11" height="8.11" fill="#0D1117"/>
    <rect x="811.08" y="392.16" width="8.11" height="8.11" fill="#0D1117"/>
    <rect x="843.51" y="392.16" width="16.22" height="8.11" fill="#0D1117"/>
    <rect x="875.95" y="392.16" width="32.43" height="8.11" fill="#0D1117"/>
    <rect x="924.59" y="392.16" width="32.43" height="8.11" fill="#0D1117"/>
    <rect x="965.14" y="392.16" width="8.11" height="8.11" fill="#0D1117"/>
    <rect x="981.35" y="392.16" width="16.22" height="8.11" fill="#0D1117"/>
    <rect x="778.65" y="400.27" width="16.22" height="8.11" fill="#0D1117"/>
    <rect x="802.97" y="400.27" width="8.11" height="8.11" fill="#0D1117"/>
    <rect x="819.19" y="400.27" width="24.32" height="8.11" fill="#0D1117"/>
    <rect x="867.84" y="400.27" width="8.11" height="8.11" fill="#0D1117"/>
    <rect x="892.16" y="400.27" width="16.22" height="8.11" fill="#0D1117"/>
    <rect x="924.59" y="400.27" width="24.32" height="8.11" fill="#0D1117"/>
    <rect x="965.14" y="400.27" width="16.22" height="8.11" fill="#0D1117"/>
    <rect x="989.46" y="400.27" width="8.11" height="8.11" fill="#0D1117"/>
    <rect x="762.43" y="408.38" width="8.11" height="8.11" fill="#0D1117"/>
    <rect x="778.65" y="408.38" width="8.11" height="8.11" fill="#0D1117"/>
    <rect x="794.86" y="408.38" width="8.11" height="8.11" fill="#0D1117"/>
    <rect x="811.08" y="408.38" width="8.11" height="8.11" fill="#0D1117"/>
    <rect x="843.51" y="408.38" width="24.32" height="8.11" fill="#0D1117"/>
    <rect x="875.95" y="408.38" width="8.11" height="8.11" fill="#0D1117"/>
    <rect x="892.16" y="408.38" width="8.11" height="8.11" fill="#0D1117"/>
    <rect x="908.38" y="408.38" width="8.11" height="8.11" fill="#0D1117"/>
    <rect x="924.59" y="408.38" width="16.22" height="8.11" fill="#0D1117"/>
    <rect x="948.92" y="408.38" width="8.11" height="8.11" fill="#0D1117"/>
    <rect x="981.35" y="408.38" width="16.22" height="8.11" fill="#0D1117"/>
    <rect x="770.54" y="416.49" width="32.43" height="8.11" fill="#0D1117"/>
    <rect x="819.19" y="416.49" width="16.22" height="8.11" fill="#0D1117"/>
    <rect x="843.51" y="416.49" width="8.11" height="8.11" fill="#0D1117"/>
    <rect x="867.84" y="416.49" width="8.11" height="8.11" fill="#0D1117"/>
    <rect x="900.27" y="416.49" width="16.22" height="8.11" fill="#0D1117"/>
    <rect x="924.59" y="416.49" width="8.11" height="8.11" fill="#0D1117"/>
    <rect x="965.14" y="416.49" width="8.11" height="8.11" fill="#0D1117"/>
    <rect x="981.35" y="416.49" width="8.11" height="8.11" fill="#0D1117"/>
    <rect x="762.43" y="424.59" width="8.11" height="8.11" fill="#0D1117"/>
    <rect x="778.65" y="424.59" width="16.22" height="8.11" fill="#0D1117"/>
    <rect x="811.08" y="424.59" width="8.11" height="8.11" fill="#0D1117"/>
    <rect x="835.41" y="424.59" width="16.22" height="8.11" fill="#0D1117"/>
    <rect x="859.73" y="424.59" width="8.11" height="8.11" fill="#0D1117"/>
    <rect x="875.95" y="424.59" width="8.11" height="8.11" fill="#0D1117"/>
    <rect x="900.27" y="424.59" width="8.11" height="8.11" fill="#0D1117"/>
    <rect x="916.49" y="424.59" width="48.65" height="8.11" fill="#0D1117"/>
    <rect x="827.30" y="432.70" width="32.43" height="8.11" fill="#0D1117"/>
    <rect x="892.16" y="432.70" width="16.22" height="8.11" fill="#0D1117"/>
    <rect x="916.49" y="432.70" width="16.22" height="8.11" fill="#0D1117"/>
    <rect x="957.03" y="432.70" width="8.11" height="8.11" fill="#0D1117"/>
    <rect x="973.24" y="432.70" width="24.32" height="8.11" fill="#0D1117"/>
    <rect x="762.43" y="440.81" width="56.76" height="8.11" fill="#0D1117"/>
    <rect x="851.62" y="440.81" width="24.32" height="8.11" fill="#0D1117"/>
    <rect x="892.16" y="440.81" width="16.22" height="8.11" fill="#0D1117"/>
    <rect x="916.49" y="440.81" width="16.22" height="8.11" fill="#0D1117"/>
    <rect x="940.81" y="440.81" width="8.11" height="8.11" fill="#0D1117"/>
    <rect x="957.03" y="440.81" width="16.22" height="8.11" fill="#0D1117"/>
    <rect x="981.35" y="440.81" width="16.22" height="8.11" fill="#0D1117"/>
    <rect x="762.43" y="448.92" width="8.11" height="8.11" fill="#0D1117"/>
    <rect x="811.08" y="448.92" width="8.11" height="8.11" fill="#0D1117"/>
    <rect x="843.51" y="448.92" width="8.11" height="8.11" fill="#0D1117"/>
    <rect x="859.73" y="448.92" width="8.11" height="8.11" fill="#0D1117"/>
    <rect x="884.05" y="448.92" width="8.11" height="8.11" fill="#0D1117"/>
    <rect x="900.27" y="448.92" width="32.43" height="8.11" fill="#0D1117"/>
    <rect x="957.03" y="448.92" width="16.22" height="8.11" fill="#0D1117"/>
    <rect x="981.35" y="448.92" width="8.11" height="8.11" fill="#0D1117"/>
    <rect x="762.43" y="457.03" width="8.11" height="8.11" fill="#0D1117"/>
    <rect x="778.65" y="457.03" width="24.32" height="8.11" fill="#0D1117"/>
    <rect x="811.08" y="457.03" width="8.11" height="8.11" fill="#0D1117"/>
    <rect x="827.30" y="457.03" width="8.11" height="8.11" fill="#0D1117"/>
    <rect x="843.51" y="457.03" width="24.32" height="8.11" fill="#0D1117"/>
    <rect x="900.27" y="457.03" width="8.11" height="8.11" fill="#0D1117"/>
    <rect x="924.59" y="457.03" width="40.54" height="8.11" fill="#0D1117"/>
    <rect x="762.43" y="465.14" width="8.11" height="8.11" fill="#0D1117"/>
    <rect x="778.65" y="465.14" width="24.32" height="8.11" fill="#0D1117"/>
    <rect x="811.08" y="465.14" width="8.11" height="8.11" fill="#0D1117"/>
    <rect x="835.41" y="465.14" width="8.11" height="8.11" fill="#0D1117"/>
    <rect x="867.84" y="465.14" width="8.11" height="8.11" fill="#0D1117"/>
    <rect x="892.16" y="465.14" width="16.22" height="8.11" fill="#0D1117"/>
    <rect x="924.59" y="465.14" width="8.11" height="8.11" fill="#0D1117"/>
    <rect x="957.03" y="465.14" width="8.11" height="8.11" fill="#0D1117"/>
    <rect x="973.24" y="465.14" width="24.32" height="8.11" fill="#0D1117"/>
    <rect x="762.43" y="473.24" width="8.11" height="8.11" fill="#0D1117"/>
    <rect x="778.65" y="473.24" width="24.32" height="8.11" fill="#0D1117"/>
    <rect x="811.08" y="473.24" width="8.11" height="8.11" fill="#0D1117"/>
    <rect x="827.30" y="473.24" width="8.11" height="8.11" fill="#0D1117"/>
    <rect x="843.51" y="473.24" width="32.43" height="8.11" fill="#0D1117"/>
    <rect x="924.59" y="473.24" width="8.11" height="8.11" fill="#0D1117"/>
    <rect x="948.92" y="473.24" width="24.32" height="8.11" fill="#0D1117"/>
    <rect x="989.46" y="473.24" width="8.11" height="8.11" fill="#0D1117"/>
    <rect x="762.43" y="481.35" width="8.11" height="8.11" fill="#0D1117"/>
    <rect x="811.08" y="481.35" width="8.11" height="8.11" fill="#0D1117"/>
    <rect x="851.62" y="481.35" width="16.22" height="8.11" fill="#0D1117"/>
    <rect x="892.16" y="481.35" width="24.32" height="8.11" fill="#0D1117"/>
    <rect x="924.59" y="481.35" width="24.32" height="8.11" fill="#0D1117"/>
    <rect x="957.03" y="481.35" width="8.11" height="8.11" fill="#0D1117"/>
    <rect x="981.35" y="481.35" width="8.11" height="8.11" fill="#0D1117"/>
    <rect x="762.43" y="489.46" width="56.76" height="8.11" fill="#0D1117"/>
    <rect x="827.30" y="489.46" width="32.43" height="8.11" fill="#0D1117"/>
    <rect x="867.84" y="489.46" width="64.86" height="8.11" fill="#0D1117"/>
    <rect x="948.92" y="489.46" width="24.32" height="8.11" fill="#0D1117"/>
    <rect x="981.35" y="489.46" width="16.22" height="8.11" fill="#0D1117"/>
  <text x="880.0" y="570" text-anchor="middle" font-family="-apple-system, BlinkMacSystemFont, Segoe UI, Helvetica, Arial, sans-serif" font-size="23" font-weight="600" fill="#0D1117">The package</text>
  <text x="880.0" y="599" text-anchor="middle" font-family="ui-monospace, SFMono-Regular, Menlo, Consolas, monospace" font-size="14" fill="#57606A">npmjs.com/package/privacy.md</text>

  <text x="640" y="678" text-anchor="middle" font-family="ui-monospace, SFMono-Regular, Menlo, Consolas, monospace" font-size="17" fill="#8B949E">npx privacy.md init   &#183;   MIT   &#183;   24 of 27 leak probes held   &#183;   nothing uploaded</text>
</svg>
